<svg xmlns="http://www.w3.org/2000/svg" width="364.2" height="401"><style type="text/css">.st0{fill:#FFFFFF;}</style><path d="M22.1 282.1h4.5v10.1h11.8v-10.1h4.5v25.2h-4.5v-11.1H26.5v11.1H22v-25.2zM68.9 296.5l-9.5-14.4H65l6.2 10.1 6.3-10.1h5.3l-9.5 14.4v10.8h-4.5v-10.8zM99.4 282.1h9.9c1.7 0 3.3.3 4.8.8s2.9 1.3 4.1 2.3c1.2 1 2.1 2.4 2.9 3.9.7 1.6 1.1 3.4 1.1 5.6 0 2.2-.4 4-1.2 5.6-.8 1.6-1.9 2.9-3.2 3.9-1.3 1-2.7 1.8-4.3 2.3-1.6.5-3.1.8-4.7.8h-9.4v-25.2zm7.9 21.2c1.4 0 2.7-.2 4-.5 1.2-.3 2.3-.8 3.3-1.5s1.7-1.6 2.2-2.6c.5-1.1.8-2.4.8-3.9s-.2-2.8-.7-3.9c-.5-1.1-1.1-2-2-2.7-.8-.7-1.8-1.2-3-1.5-1.2-.3-2.4-.5-3.8-.5H104v17.1h3.3zM140.8 282.1h8.8c1.2 0 2.4.1 3.5.3 1.1.2 2.1.6 3 1.2.9.5 1.6 1.3 2.1 2.2.5.9.8 2.1.8 3.5 0 1.8-.5 3.4-1.5 4.6-1 1.2-2.5 2-4.3 2.2l6.7 11.2h-5.4l-5.8-10.7h-3.3v10.7h-4.5v-25.2zm7.9 10.7c.6 0 1.3 0 1.9-.1.6-.1 1.2-.2 1.8-.4.5-.2 1-.6 1.3-1 .3-.5.5-1.1.5-1.9 0-.7-.2-1.3-.5-1.8s-.7-.8-1.2-1c-.5-.2-1.1-.4-1.7-.4-.6-.1-1.2-.1-1.8-.1h-3.9v6.8h3.6zM176.1 294.8c0-2 .3-3.9 1-5.5s1.6-3.1 2.8-4.2c1.2-1.2 2.6-2.1 4.2-2.7 1.6-.6 3.4-.9 5.4-.9 2 0 3.8.3 5.4.9 1.6.6 3.1 1.5 4.2 2.7 1.2 1.2 2.1 2.6 2.8 4.2.7 1.6 1 3.5 1 5.5s-.3 3.8-1 5.4c-.7 1.6-1.6 3-2.8 4.2-1.2 1.2-2.6 2.1-4.2 2.7-1.6.7-3.4 1-5.4 1-1.9 0-3.7-.3-5.4-.9s-3-1.5-4.2-2.7c-1.2-1.2-2.1-2.5-2.8-4.2-.7-1.7-1-3.5-1-5.5zm4.7-.3c0 1.4.2 2.6.6 3.7s1 2.1 1.8 3 1.7 1.5 2.7 2c1.1.5 2.2.7 3.5.7 1.3 0 2.5-.2 3.6-.7 1.1-.5 2-1.1 2.7-2 .8-.8 1.3-1.8 1.8-3 .4-1.1.6-2.4.6-3.7 0-1.3-.2-2.4-.6-3.5-.4-1.1-1-2-1.8-2.9-.8-.8-1.7-1.5-2.7-1.9-1.1-.5-2.3-.7-3.6-.7-1.3 0-2.5.2-3.5.7-1.1.5-2 1.1-2.7 1.9-.8.8-1.3 1.8-1.8 2.9-.4 1.1-.6 2.3-.6 3.5zM243.8 305.5c-3.1 1.7-6.6 2.5-10.4 2.5-1.9 0-3.7-.3-5.4-.9s-3-1.5-4.2-2.7c-1.2-1.2-2.1-2.5-2.8-4.2-.7-1.6-1-3.4-1-5.4 0-2 .3-3.9 1-5.5s1.6-3.1 2.8-4.2c1.2-1.2 2.6-2.1 4.2-2.7 1.6-.6 3.4-.9 5.4-.9 1.9 0 3.7.2 5.4.7 1.7.5 3.2 1.3 4.5 2.5L240 288c-.8-.8-1.8-1.4-2.9-1.8-1.2-.4-2.4-.6-3.7-.6-1.3 0-2.5.2-3.5.7-1.1.5-2 1.1-2.7 1.9-.8.8-1.3 1.8-1.8 2.9-.4 1.1-.6 2.3-.6 3.5 0 1.4.2 2.6.6 3.7.4 1.1 1 2.1 1.8 3 .8.8 1.7 1.5 2.7 2 1.1.5 2.2.7 3.5.7 1.1 0 2.2-.1 3.2-.3 1-.2 1.9-.5 2.7-1v-6h-5.2v-4.1h9.7v12.9zM263.4 282.1h16.7v4.1h-12.2v6.2h11.6v4.1h-11.6v6.8h12.9v4.1h-17.4v-25.3zM299.4 282.1h6l12.2 18.7h.1v-18.7h4.5v25.2h-5.7L304 288h-.1v19.4h-4.5v-25.3zM22.1 256.9v-4.1H63v4.1H22.1zM158 153.4c0 19.5-8.1 37-21.1 49.5l-11.8-4.5c.6-1.9.9-3.9.9-6 0-10.8-8.8-19.5-19.5-19.5-10.8 0-19.5 8.8-19.5 19.5 0 10.8 8.7 19.5 19.5 19.5 8 0 14.9-4.8 17.9-11.7l10.9 4.1c-12.2 11-28.4 17.7-46.1 17.7-21.7 0-41-10-53.6-25.7 11-1 19.7-10.3 19.7-21.5 0-8.7-5.2-16.3-12.7-19.7l3.1-7.7c1.7.6 3.6.9 5.5.9 6.1 0 11.4-3.1 14.5-7.8L84 151.6c-.6 1.9-.2 4 1.3 5.5.2.2.5.4.7.6l-13.2 28.6c-1.3-.5-2.7-.7-4.2-.7-6.7 0-12.2 5.5-12.2 12.2 0 6.7 5.5 12.2 12.2 12.2 6.7 0 12.2-5.5 12.2-12.2 0-4.6-2.5-8.5-6.2-10.6l13.2-28.6c1.8.4 3.7-.1 5.1-1.4 1.1-1.1 1.6-2.4 1.6-3.8l5.2-1.1c2.7 10.7 12.5 18.7 24.1 18.7 13.7 0 24.8-11.1 24.8-24.8 0-13.7-11.1-24.8-24.8-24.8l-.4-10.4c5.3-.6 9.8-3.8 12.1-8.3 13.8 12.5 22.5 30.6 22.5 50.7zM98.9 146.1c0 1.4.1 2.8.4 4.1l-5.1 1.1c-.3-.7-.7-1.3-1.2-1.8-2.1-2.1-5.5-2.1-7.6 0-.1.1-.2.2-.3.3L66.8 139c1.2-2.4 1.9-5.1 1.9-8 0-9.7-7.8-17.5-17.5-17.5s-17.5 7.8-17.5 17.5c0 7 4.1 13.1 10.1 15.9l-3.1 7.7c-2.2-.8-4.6-1.2-7-1.2-5 0-9.5 1.7-13.2 4.5-.1-1.5-.1-3-.1-4.5 0-36.2 28-65.9 63.5-68.6l4.5 18.2c-4.4 1.5-7.5 5.7-7.5 10.6 0 6.2 5 11.2 11.2 11.2 6.2 0 11.2-5 11.2-11.2 0-6.2-5-11.2-11.2-11.2-.6 0-1.2 0-1.7.1l-4.5-17.8c1.1 0 2.2-.1 3.3-.1 6.7 0 13.3 1 19.4 2.8-1.4 2.4-2.3 5.1-2.3 8.1 0 8.4 6.7 15.2 15.1 15.5l.4 10.4c-12.8 1-22.9 11.7-22.9 24.7z" class="st0"/></svg>